<svg width="64" height="64" viewBox="0 0 64 64" fill="none" xmlns="http://www.w3.org/2000/svg">
<path d="M32 19.6667C34.829 19.6667 37.5421 20.7905 39.5425 22.7909C41.5429 24.7912 42.6667 27.5043 42.6667 30.3333C42.6667 33.1623 41.5429 35.8754 39.5425 37.8758C37.5421 39.8762 34.829 41 32 41C29.171 41 26.4579 39.8762 24.4575 37.8758C22.4572 35.8754 21.3334 33.1623 21.3334 30.3333C21.3334 27.5043 22.4572 24.7912 24.4575 22.7909C26.4579 20.7905 29.171 19.6667 32 19.6667ZM32 25C30.5855 25 29.229 25.5619 28.2288 26.5621C27.2286 27.5623 26.6667 28.9188 26.6667 30.3333C26.6667 31.7478 27.2286 33.1044 28.2288 34.1046C29.229 35.1048 30.5855 35.6667 32 35.6667C33.4145 35.6667 34.7711 35.1048 35.7713 34.1046C36.7714 33.1044 37.3334 31.7478 37.3334 30.3333C37.3334 28.9188 36.7714 27.5623 35.7713 26.5621C34.7711 25.5619 33.4145 25 32 25ZM32 43.6667C39.12 43.6667 53.3334 47.2133 53.3334 54.3333V62.3333H10.6667V54.3333C10.6667 47.2133 24.88 43.6667 32 43.6667ZM32 48.7333C24.08 48.7333 15.7334 52.6267 15.7334 54.3333V57.2667H48.2667V54.3333C48.2667 52.6267 39.92 48.7333 32 48.7333Z" fill="#298781"/>
</svg>
