<svg width="90" height="90" viewBox="0 0 90 90" fill="none" xmlns="http://www.w3.org/2000/svg">
<rect width="90" height="90" fill="white"/>
<path d="M45 7.5C49.9246 7.5 54.8009 8.46997 59.3506 10.3545C63.9003 12.2391 68.0343 15.0013 71.5165 18.4835C74.9987 21.9657 77.7609 26.0997 79.6455 30.6494C81.53 35.1991 82.5 40.0754 82.5 45C82.5 46.9891 81.7098 48.8968 80.3033 50.3033C78.8968 51.7098 76.9891 52.5 75 52.5H15C13.0109 52.5 11.1032 51.7098 9.6967 50.3033C8.29018 48.8968 7.5 46.9891 7.5 45C7.5 35.0544 11.4509 25.5161 18.4835 18.4835C25.5161 11.4509 35.0544 7.5 45 7.5ZM45 30C46.9891 30 48.8968 29.2098 50.3033 27.8033C51.7098 26.3968 52.5 24.4891 52.5 22.5C52.5 20.5109 51.7098 18.6032 50.3033 17.1967C48.8968 15.7902 46.9891 15 45 15C43.0109 15 41.1032 15.7902 39.6967 17.1967C38.2902 18.6032 37.5 20.5109 37.5 22.5C37.5 24.4891 38.2902 26.3968 39.6967 27.8033C41.1032 29.2098 43.0109 30 45 30ZM63.75 45C65.7391 45 67.6468 44.2098 69.0533 42.8033C70.4598 41.3968 71.25 39.4891 71.25 37.5C71.25 35.5109 70.4598 33.6032 69.0533 32.1967C67.6468 30.7902 65.7391 30 63.75 30C61.7609 30 59.8532 30.7902 58.4467 32.1967C57.0402 33.6032 56.25 35.5109 56.25 37.5C56.25 39.4891 57.0402 41.3968 58.4467 42.8033C59.8532 44.2098 61.7609 45 63.75 45ZM26.25 45C28.2391 45 30.1468 44.2098 31.5533 42.8033C32.9598 41.3968 33.75 39.4891 33.75 37.5C33.75 35.5109 32.9598 33.6032 31.5533 32.1967C30.1468 30.7902 28.2391 30 26.25 30C24.2609 30 22.3532 30.7902 20.9467 32.1967C19.5402 33.6032 18.75 35.5109 18.75 37.5C18.75 39.4891 19.5402 41.3968 20.9467 42.8033C22.3532 44.2098 24.2609 45 26.25 45ZM56.25 56.25L61.0125 72.9375L61.3125 75C61.3125 79.125 57.9375 82.5 53.8125 82.5H36.1875C34.1984 82.5 32.2907 81.7098 30.8842 80.3033C29.4777 78.8968 28.6875 76.9891 28.6875 75L28.9875 72.9375L33.75 56.25H56.25Z" fill="#298781"/>
</svg>
