<svg width="56" height="56" viewBox="0 0 56 56" fill="none" xmlns="http://www.w3.org/2000/svg">
<path d="M35.224 13.776C33.8205 12.3464 32.1476 11.209 30.3019 10.4296C28.4563 9.65018 26.4746 9.24414 24.4712 9.23493C22.4677 9.22573 20.4823 9.61354 18.6296 10.376C16.777 11.1384 15.0937 12.2603 13.677 13.677C12.2604 15.0936 11.1384 16.7769 10.376 18.6296C9.61357 20.4823 9.22576 22.4677 9.23497 24.4711C9.24417 26.4745 9.65021 28.4563 10.4296 30.3019C11.2091 32.1475 12.3464 33.8204 13.776 35.224C16.6291 38.0251 20.4729 39.5863 24.4712 39.5679C28.4694 39.5496 32.2987 37.9531 35.1259 35.1259C37.9532 32.2987 39.5496 28.4694 39.568 24.4711C39.5863 20.4729 38.0252 16.6291 35.224 13.776ZM10.4767 10.4767C14.0533 6.90097 18.8607 4.82667 23.9159 4.67793C28.9712 4.52919 33.8923 6.31726 37.6729 9.67649C41.4535 13.0357 43.808 17.7123 44.255 22.7499C44.7019 27.7876 43.2075 32.8056 40.0774 36.778L52.549 49.2497L49.2497 52.549L36.778 40.0773C32.8044 43.1959 27.7906 44.681 22.7595 44.2297C17.7284 43.7784 13.059 41.4246 9.70384 37.6486C6.34867 33.8725 4.56052 28.9587 4.70413 23.9094C4.84775 18.8602 6.91232 14.0559 10.4767 10.4767Z" fill="#298781"/>
</svg>
