<svg width="64" height="64" viewBox="0 0 64 64" fill="none" xmlns="http://www.w3.org/2000/svg">
<path d="M59.5581 40.8369L48.6066 45.28L38.7475 40.88C37.9577 40.5273 37.0766 40.5273 36.2868 40.88L26.4829 45.2554L16.6789 40.88C15.9233 40.5423 15.0826 40.527 14.3176 40.8369L2.17983 45.76C1.7712 45.9257 1.39583 46.1795 1.07514 46.507C0.754452 46.8344 0.494734 47.2292 0.310813 47.6686C-0.0606315 48.5561 -0.100789 49.5718 0.199175 50.4923C0.499138 51.4128 1.11465 52.1627 1.91031 52.577C2.70597 52.9913 3.61659 53.0361 4.44186 52.7015L6.68182 51.7938C6.98182 55.1356 8.38319 58.2342 10.6144 60.4892C12.8456 62.7443 15.7479 63.9954 18.7589 64H45.2411C48.4592 63.9959 51.5443 62.5683 53.8198 60.0302C56.0953 57.4921 57.3752 54.0509 57.3789 50.4615V49.5785L61.8202 47.7785C62.2288 47.6128 62.6042 47.359 62.9249 47.0315C63.2455 46.704 63.5053 46.3093 63.6892 45.8699C63.8731 45.4304 63.9776 44.9549 63.9968 44.4704C64.0159 43.9859 63.9494 43.5019 63.8008 43.0462C63.6523 42.5904 63.4247 42.1717 63.1311 41.814C62.8375 41.4563 62.4837 41.1666 62.0897 40.9614C61.6957 40.7563 61.2694 40.6397 60.835 40.6184C60.4007 40.597 59.9668 40.6713 59.5581 40.8369ZM45.2411 56.6154H18.7589C17.2956 56.6154 15.8923 55.967 14.8576 54.813C13.823 53.6589 13.2417 52.0936 13.2417 50.4615V49.1323L15.3934 48.2585L25.2525 52.6585C26.0423 53.0111 26.9234 53.0111 27.7132 52.6585L37.5171 48.2831L47.3211 52.6585C48.0767 52.9962 48.9174 53.0115 49.6825 52.7015L50.4797 52.3754C50.1182 53.6075 49.4171 54.6808 48.4764 55.4422C47.5357 56.2036 46.4034 56.6142 45.2411 56.6154ZM0.000557403 33.2308C0.000557403 32.2515 0.349319 31.3124 0.970118 30.6199C1.59092 29.9275 2.4329 29.5385 3.31084 29.5385H60.6892C61.5671 29.5385 62.4091 29.9275 63.0299 30.6199C63.6507 31.3124 63.9994 32.2515 63.9994 33.2308C63.9994 34.21 63.6507 35.1492 63.0299 35.8416C62.4091 36.5341 61.5671 36.9231 60.6892 36.9231H3.31084C2.4329 36.9231 1.59092 36.5341 0.970118 35.8416C0.349319 35.1492 0.000557403 34.21 0.000557403 33.2308ZM9.98659 25.8462H54.0134C54.893 25.8454 55.7602 25.6141 56.5451 25.1711C57.3299 24.728 58.0105 24.0855 58.5319 23.2954C59.0413 22.5255 59.379 21.6314 59.5172 20.687C59.6553 19.7427 59.5899 18.7752 59.3264 17.8646C56.3085 7.34769 45.0729 0 32 0C18.9271 0 7.69422 7.34462 4.67358 17.8615C4.40937 18.772 4.34363 19.7396 4.4818 20.6841C4.61997 21.6286 4.95807 22.5227 5.46805 23.2923C5.98862 24.0837 6.66893 24.7273 7.45393 25.171C8.23893 25.6147 9.10656 25.846 9.98659 25.8462ZM32 7.38462C41.2964 7.38462 49.5473 11.9538 52.4134 18.4615H32H11.5866C14.4555 11.9538 22.7064 7.38462 32 7.38462Z" fill="#298781"/>
</svg>
